<svg width="327" height="116" viewBox="0 0 327 116" fill="none" xmlns="http://www.w3.org/2000/svg">
<path d="M8.64 46.436H0.648V42.8H20.844V46.436H12.852V68H8.64V46.436ZM25.1449 68.288C22.9369 68.288 21.1609 67.652 19.8169 66.38C18.4729 65.084 17.8009 63.38 17.8009 61.268V56.804C17.8009 55.412 18.1009 54.188 18.7009 53.132C19.3249 52.052 20.1889 51.224 21.2929 50.648C22.4209 50.048 23.7169 49.748 25.1809 49.748H28.3489C29.8129 49.748 31.0969 50.048 32.2009 50.648C33.3289 51.224 34.1929 52.052 34.7929 53.132C35.4169 54.188 35.7289 55.412 35.7289 56.804V61.268C35.7289 63.38 35.0449 65.084 33.6769 66.38C32.3329 67.652 30.5329 68.288 28.2769 68.288H25.1449ZM28.2409 64.724C29.2489 64.724 30.0529 64.388 30.6529 63.716C31.2769 63.02 31.5889 62.12 31.5889 61.016V57.02C31.5889 55.916 31.2889 55.028 30.6889 54.356C30.0889 53.66 29.2849 53.312 28.2769 53.312H25.2529C24.2449 53.312 23.4409 53.66 22.8409 54.356C22.2409 55.028 21.9409 55.916 21.9409 57.02V61.016C21.9409 62.12 22.2409 63.02 22.8409 63.716C23.4409 64.388 24.2209 64.724 25.1809 64.724H28.2409ZM44.6546 68.288C42.6146 68.288 40.9586 67.652 39.6866 66.38C38.4386 65.084 37.8146 63.392 37.8146 61.304V57.128C37.8146 55.664 38.1146 54.38 38.7146 53.276C39.3146 52.148 40.1546 51.284 41.2346 50.684C42.3386 50.06 43.5986 49.748 45.0146 49.748H47.2106C47.9546 49.748 48.6866 49.916 49.4066 50.252C50.1506 50.588 50.7626 51.032 51.2426 51.584V42.8H55.3466V68H51.4946V65.516C50.9906 66.356 50.3186 67.028 49.4786 67.532C48.6386 68.036 47.7866 68.288 46.9226 68.288H44.6546ZM47.2466 64.724C48.2786 64.724 49.1666 64.316 49.9106 63.5C50.6786 62.66 51.1226 61.628 51.2426 60.404V56.804C51.0746 55.772 50.6666 54.932 50.0186 54.284C49.3946 53.636 48.6386 53.312 47.7506 53.312H45.4466C44.3906 53.312 43.5386 53.684 42.8906 54.428C42.2666 55.172 41.9546 56.144 41.9546 57.344V61.052C41.9546 62.156 42.2426 63.044 42.8186 63.716C43.4186 64.388 44.1746 64.724 45.0866 64.724H47.2466ZM64.3728 68.288C62.5488 68.288 61.0728 67.832 59.9448 66.92C58.8408 65.984 58.2888 64.748 58.2888 63.212V61.916C58.2888 60.404 58.8648 59.192 60.0168 58.28C61.1928 57.368 62.7288 56.912 64.6248 56.912H66.8568C67.5288 56.912 68.2488 57.008 69.0168 57.2C69.7848 57.392 70.4688 57.644 71.0688 57.956V55.724C71.0688 54.98 70.8288 54.38 70.3488 53.924C69.8688 53.468 69.2448 53.24 68.4768 53.24H65.4528C64.6608 53.24 64.0248 53.432 63.5448 53.816C63.0648 54.176 62.8248 54.656 62.8248 55.256H58.7928C58.7928 53.6 59.4048 52.268 60.6288 51.26C61.8528 50.252 63.4608 49.748 65.4528 49.748H68.4768C70.4928 49.748 72.1128 50.3 73.3368 51.404C74.5608 52.484 75.1728 53.924 75.1728 55.724V68H71.3208V65.732C70.7448 66.5 70.0248 67.124 69.1608 67.604C68.2968 68.06 67.4448 68.288 66.6048 68.288H64.3728ZM66.8568 65.048C67.8168 65.048 68.6808 64.784 69.4488 64.256C70.2168 63.704 70.7568 62.984 71.0688 62.096V61.232C70.6608 60.896 70.0848 60.632 69.3408 60.44C68.5968 60.224 67.8168 60.116 67.0008 60.116H64.7328C64.0128 60.116 63.4248 60.296 62.9688 60.656C62.5368 61.016 62.3208 61.484 62.3208 62.06V63.068C62.3208 63.668 62.5488 64.148 63.0048 64.508C63.4608 64.868 64.0608 65.048 64.8048 65.048H66.8568ZM85.0798 75.308C83.2558 75.308 81.7438 74.804 80.5438 73.796C79.3678 72.788 78.7198 71.456 78.5998 69.8H82.6678C82.7398 70.4 82.9918 70.88 83.4238 71.24C83.8558 71.6 84.4078 71.78 85.0798 71.78H87.9958C88.9078 71.78 89.6278 71.432 90.1558 70.736C90.7078 70.064 90.9838 69.152 90.9838 68V65.336C90.4078 66.128 89.7358 66.752 88.9678 67.208C88.2238 67.664 87.4678 67.892 86.6998 67.892H84.3598C82.5358 67.892 81.0598 67.292 79.9318 66.092C78.8278 64.868 78.2758 63.26 78.2758 61.268V50.036H82.4158V61.34C82.4158 62.252 82.6318 62.984 83.0638 63.536C83.5198 64.088 84.1198 64.364 84.8638 64.364H86.9878C87.8758 64.364 88.6918 63.992 89.4358 63.248C90.2038 62.504 90.7198 61.556 90.9838 60.404V50.036H95.0878V68C95.0878 70.232 94.4398 72.008 93.1438 73.328C91.8718 74.648 90.1558 75.308 87.9958 75.308H85.0798ZM97.459 49.784L98.359 49.028C99.655 47.948 100.303 46.604 100.303 44.996V42.8H104.443V44.996C104.443 48.02 103.327 50.36 101.095 52.016L100.051 52.808L97.459 49.784ZM112.26 68.288C110.196 68.288 108.54 67.736 107.292 66.632C106.044 65.528 105.42 64.064 105.42 62.24H109.488C109.488 63.008 109.74 63.632 110.244 64.112C110.748 64.568 111.42 64.796 112.26 64.796H115.464C116.28 64.796 116.916 64.664 117.372 64.4C117.852 64.112 118.092 63.728 118.092 63.248V62.456C118.092 62.12 117.948 61.832 117.66 61.592C117.396 61.352 117.024 61.184 116.544 61.088L110.316 60.008C108.924 59.768 107.82 59.264 107.004 58.496C106.188 57.704 105.78 56.792 105.78 55.76V54.572C105.78 53.084 106.368 51.908 107.544 51.044C108.744 50.18 110.388 49.748 112.476 49.748H115.356C117.252 49.748 118.788 50.264 119.964 51.296C121.14 52.328 121.728 53.684 121.728 55.364H117.66C117.66 54.716 117.444 54.2 117.012 53.816C116.604 53.432 116.052 53.24 115.356 53.24H112.512C111.672 53.24 111.024 53.372 110.568 53.636C110.112 53.9 109.884 54.272 109.884 54.752V55.472C109.884 55.808 110.016 56.096 110.28 56.336C110.568 56.576 110.94 56.732 111.396 56.804L117.84 57.956C119.16 58.22 120.216 58.724 121.008 59.468C121.8 60.212 122.196 61.088 122.196 62.096V63.428C122.196 64.916 121.584 66.104 120.36 66.992C119.136 67.856 117.504 68.288 115.464 68.288H112.26ZM142.261 68.288C140.437 68.288 138.829 67.904 137.437 67.136C136.045 66.344 134.965 65.24 134.197 63.824C133.429 62.384 133.045 60.728 133.045 58.856V51.944C133.045 50.072 133.429 48.428 134.197 47.012C134.965 45.572 136.045 44.468 137.437 43.7C138.829 42.908 140.437 42.512 142.261 42.512H146.077C147.901 42.512 149.509 42.908 150.901 43.7C152.317 44.468 153.409 45.572 154.177 47.012C154.945 48.428 155.329 50.072 155.329 51.944V58.856C155.329 60.728 154.945 62.384 154.177 63.824C153.409 65.24 152.317 66.344 150.901 67.136C149.509 67.904 147.901 68.288 146.077 68.288H142.261ZM146.077 64.58C147.565 64.58 148.777 64.04 149.713 62.96C150.649 61.88 151.117 60.464 151.117 58.712V52.088C151.117 50.336 150.649 48.92 149.713 47.84C148.801 46.76 147.589 46.22 146.077 46.22H142.297C140.785 46.22 139.561 46.76 138.625 47.84C137.713 48.92 137.257 50.336 137.257 52.088V58.712C137.257 60.464 137.713 61.88 138.625 62.96C139.561 64.04 140.785 64.58 142.297 64.58H146.077ZM159.967 53.6H156.871V50.036H159.967V48.776C159.967 46.832 160.543 45.332 161.695 44.276C162.871 43.196 164.515 42.656 166.627 42.656H168.823V46.184H166.699C165.811 46.184 165.151 46.4 164.719 46.832C164.311 47.24 164.107 47.9 164.107 48.812V50.036H168.427V53.6H164.107V68H159.967V53.6ZM172.282 53.6H169.186V50.036H172.282V48.776C172.282 46.832 172.858 45.332 174.01 44.276C175.186 43.196 176.83 42.656 178.942 42.656H181.138V46.184H179.014C178.126 46.184 177.466 46.4 177.034 46.832C176.626 47.24 176.422 47.9 176.422 48.812V50.036H180.742V53.6H176.422V68H172.282V53.6ZM188.615 68.288C187.151 68.288 185.855 68.012 184.727 67.46C183.623 66.908 182.759 66.128 182.135 65.12C181.535 64.112 181.235 62.948 181.235 61.628V56.804C181.235 55.412 181.535 54.188 182.135 53.132C182.759 52.052 183.623 51.224 184.727 50.648C185.855 50.048 187.151 49.748 188.615 49.748H191.495C193.679 49.748 195.431 50.384 196.751 51.656C198.071 52.928 198.731 54.62 198.731 56.732V60.332H185.375V61.628C185.375 62.588 185.663 63.356 186.239 63.932C186.839 64.508 187.631 64.796 188.615 64.796H191.387C192.347 64.796 193.115 64.568 193.691 64.112C194.291 63.632 194.591 63.008 194.591 62.24H198.659C198.659 64.064 197.987 65.528 196.643 66.632C195.299 67.736 193.535 68.288 191.351 68.288H188.615ZM194.663 57.236V56.732C194.663 55.676 194.375 54.824 193.799 54.176C193.223 53.528 192.467 53.204 191.531 53.204H188.615C187.631 53.204 186.827 53.552 186.203 54.248C185.603 54.92 185.303 55.808 185.303 56.912V57.236H194.663ZM201.371 50.036H205.223V52.484C205.703 51.74 206.387 51.14 207.275 50.684C208.187 50.204 209.123 49.964 210.083 49.964H212.243V53.564H210.083C208.715 53.564 207.611 53.984 206.771 54.824C205.931 55.664 205.511 56.756 205.511 58.1V68H201.371V50.036ZM9.648 108.288C7.152 108.288 5.184 107.568 3.744 106.128C2.304 104.688 1.584 102.72 1.584 100.224H5.724C5.724 101.568 6.072 102.636 6.768 103.428C7.488 104.196 8.472 104.58 9.72 104.58H13.716C14.892 104.58 15.84 104.328 16.56 103.824C17.28 103.296 17.64 102.612 17.64 101.772V100.188C17.64 99.54 17.388 99 16.884 98.568C16.38 98.136 15.66 97.836 14.724 97.668L8.172 96.552C6.132 96.216 4.56 95.544 3.456 94.536C2.376 93.528 1.836 92.244 1.836 90.684V88.704C1.836 87.48 2.16 86.4 2.808 85.464C3.48 84.528 4.416 83.808 5.616 83.304C6.816 82.776 8.208 82.512 9.792 82.512H13.86C15.348 82.512 16.656 82.824 17.784 83.448C18.936 84.048 19.824 84.912 20.448 86.04C21.072 87.168 21.384 88.464 21.384 89.928H17.28C17.28 88.824 16.956 87.936 16.308 87.264C15.684 86.568 14.868 86.22 13.86 86.22H9.792C8.664 86.22 7.752 86.472 7.056 86.976C6.384 87.456 6.048 88.116 6.048 88.956V90.252C6.048 90.924 6.288 91.488 6.768 91.944C7.248 92.376 7.944 92.664 8.856 92.808L15.408 93.96C17.472 94.32 19.056 94.992 20.16 95.976C21.288 96.936 21.852 98.172 21.852 99.684V102.024C21.852 103.248 21.516 104.34 20.844 105.3C20.172 106.236 19.224 106.968 18 107.496C16.776 108.024 15.372 108.288 13.788 108.288H9.648ZM36.8094 108L30.7254 100.368L28.6374 102.456V108H24.4974V82.8H28.6374V97.74L36.3054 90.036H41.1654L33.4254 97.704L41.5614 108H36.8094ZM45.5588 88.02C44.7428 88.02 44.0828 87.78 43.5788 87.3C43.0988 86.796 42.8588 86.16 42.8588 85.392C42.8588 84.624 43.0988 84 43.5788 83.52C44.0828 83.016 44.7428 82.764 45.5588 82.764C46.3748 82.764 47.0348 83.016 47.5388 83.52C48.0428 84 48.2948 84.624 48.2948 85.392C48.2948 86.16 48.0428 86.796 47.5388 87.3C47.0348 87.78 46.3748 88.02 45.5588 88.02ZM43.5068 90.036H47.6468V108H43.5068V90.036ZM51.8335 90.036H55.6855V92.376C56.2135 91.584 56.9095 90.948 57.7735 90.468C58.6375 89.988 59.5015 89.748 60.3655 89.748H62.5975C64.4455 89.748 65.9215 90.336 67.0255 91.512C68.1535 92.688 68.7175 94.236 68.7175 96.156V108H64.5775V96.264C64.5775 95.4 64.3495 94.704 63.8935 94.176C63.4615 93.624 62.8855 93.348 62.1655 93.348H59.9335C58.9975 93.348 58.1575 93.708 57.4135 94.428C56.6695 95.124 56.1895 96.024 55.9735 97.128V108H51.8335V90.036ZM241.93 104.796C241.93 103.404 242.182 102.204 242.686 101.196C243.214 100.164 244.078 99.252 245.278 98.46L254.206 92.664C254.686 92.352 255.058 91.956 255.322 91.476C255.61 90.996 255.754 90.504 255.754 90V88.848C255.754 88.08 255.466 87.456 254.89 86.976C254.338 86.472 253.618 86.22 252.73 86.22H249.418C248.362 86.22 247.534 86.604 246.934 87.372C246.334 88.116 246.034 89.148 246.034 90.468H241.822C241.822 87.996 242.494 86.052 243.838 84.636C245.182 83.22 247.018 82.512 249.346 82.512H252.73C254.146 82.512 255.406 82.776 256.51 83.304C257.614 83.832 258.466 84.576 259.066 85.536C259.666 86.496 259.966 87.6 259.966 88.848V90C259.966 91.2 259.702 92.256 259.174 93.168C258.67 94.08 257.866 94.872 256.762 95.544L248.086 101.052C247.414 101.484 246.922 101.952 246.61 102.456C246.322 102.936 246.178 103.56 246.178 104.328H260.182V108H241.93V104.796ZM270.234 108.288C268.626 108.288 267.198 107.94 265.95 107.244C264.726 106.524 263.766 105.516 263.07 104.22C262.398 102.9 262.062 101.388 262.062 99.684V91.116C262.062 89.412 262.398 87.912 263.07 86.616C263.766 85.296 264.726 84.288 265.95 83.592C267.198 82.872 268.626 82.512 270.234 82.512H274.05C275.634 82.512 277.038 82.872 278.262 83.592C279.486 84.288 280.434 85.296 281.106 86.616C281.778 87.912 282.114 89.412 282.114 91.116V99.684C282.114 101.388 281.778 102.9 281.106 104.22C280.434 105.516 279.486 106.524 278.262 107.244C277.062 107.94 275.658 108.288 274.05 108.288H270.234ZM273.978 104.58C275.154 104.58 276.09 104.136 276.786 103.248C277.506 102.36 277.866 101.196 277.866 99.756V91.044C277.866 89.604 277.506 88.44 276.786 87.552C276.09 86.664 275.154 86.22 273.978 86.22H270.306C269.106 86.22 268.134 86.664 267.39 87.552C266.646 88.44 266.274 89.604 266.274 91.044V99.756C266.274 101.196 266.646 102.36 267.39 103.248C268.134 104.136 269.106 104.58 270.306 104.58H273.978ZM284.384 104.796C284.384 103.404 284.636 102.204 285.14 101.196C285.668 100.164 286.532 99.252 287.732 98.46L296.66 92.664C297.14 92.352 297.512 91.956 297.776 91.476C298.064 90.996 298.208 90.504 298.208 90V88.848C298.208 88.08 297.92 87.456 297.344 86.976C296.792 86.472 296.072 86.22 295.184 86.22H291.872C290.816 86.22 289.988 86.604 289.388 87.372C288.788 88.116 288.488 89.148 288.488 90.468H284.276C284.276 87.996 284.948 86.052 286.292 84.636C287.636 83.22 289.472 82.512 291.8 82.512H295.184C296.6 82.512 297.86 82.776 298.964 83.304C300.068 83.832 300.92 84.576 301.52 85.536C302.12 86.496 302.42 87.6 302.42 88.848V90C302.42 91.2 302.156 92.256 301.628 93.168C301.124 94.08 300.32 94.872 299.216 95.544L290.54 101.052C289.868 101.484 289.376 101.952 289.064 102.456C288.776 102.936 288.632 103.56 288.632 104.328H302.636V108H284.384V104.796ZM303.976 104.796C303.976 103.404 304.228 102.204 304.732 101.196C305.26 100.164 306.124 99.252 307.324 98.46L316.252 92.664C316.732 92.352 317.104 91.956 317.368 91.476C317.656 90.996 317.8 90.504 317.8 90V88.848C317.8 88.08 317.512 87.456 316.936 86.976C316.384 86.472 315.664 86.22 314.776 86.22H311.464C310.408 86.22 309.58 86.604 308.98 87.372C308.38 88.116 308.08 89.148 308.08 90.468H303.868C303.868 87.996 304.54 86.052 305.884 84.636C307.228 83.22 309.064 82.512 311.392 82.512H314.776C316.192 82.512 317.452 82.776 318.556 83.304C319.66 83.832 320.512 84.576 321.112 85.536C321.712 86.496 322.012 87.6 322.012 88.848V90C322.012 91.2 321.748 92.256 321.22 93.168C320.716 94.08 319.912 94.872 318.808 95.544L310.132 101.052C309.46 101.484 308.968 101.952 308.656 102.456C308.368 102.936 308.224 103.56 308.224 104.328H322.228V108H303.976V104.796Z" fill="white"/>
<path d="M89.4217 108.288C87.6217 108.288 86.0377 107.904 84.6697 107.136C83.3257 106.344 82.2817 105.24 81.5377 103.824C80.7937 102.384 80.4217 100.728 80.4217 98.856V91.944C80.4217 90.072 80.7937 88.428 81.5377 87.012C82.3057 85.572 83.3737 84.468 84.7417 83.7C86.1337 82.908 87.7297 82.512 89.5297 82.512H93.4897C95.2177 82.512 96.7417 82.872 98.0618 83.592C99.3818 84.288 100.402 85.284 101.122 86.58C101.842 87.852 102.202 89.328 102.202 91.008H98.0618C98.0618 89.568 97.6417 88.416 96.8017 87.552C95.9617 86.664 94.8577 86.22 93.4897 86.22H89.5297C88.0657 86.22 86.8777 86.76 85.9657 87.84C85.0777 88.896 84.6337 90.312 84.6337 92.088V98.712C84.6337 100.488 85.0657 101.916 85.9297 102.996C86.8177 104.052 87.9817 104.58 89.4217 104.58H93.5257C94.9177 104.58 96.0577 104.088 96.9457 103.104C97.8337 102.12 98.2777 100.86 98.2777 99.324V98.1H91.2937V94.428H102.418V99.324C102.418 101.076 102.046 102.636 101.302 104.004C100.558 105.348 99.5137 106.404 98.1697 107.172C96.8257 107.916 95.2777 108.288 93.5257 108.288H89.4217ZM110.738 108.288C108.914 108.288 107.438 107.832 106.31 106.92C105.206 105.984 104.654 104.748 104.654 103.212V101.916C104.654 100.404 105.23 99.192 106.382 98.28C107.558 97.368 109.094 96.912 110.99 96.912H113.222C113.894 96.912 114.614 97.008 115.382 97.2C116.15 97.392 116.834 97.644 117.434 97.956V95.724C117.434 94.98 117.194 94.38 116.714 93.924C116.234 93.468 115.61 93.24 114.842 93.24H111.818C111.026 93.24 110.39 93.432 109.91 93.816C109.43 94.176 109.19 94.656 109.19 95.256H105.158C105.158 93.6 105.77 92.268 106.994 91.26C108.218 90.252 109.826 89.748 111.818 89.748H114.842C116.858 89.748 118.478 90.3 119.702 91.404C120.926 92.484 121.538 93.924 121.538 95.724V108H117.686V105.732C117.11 106.5 116.39 107.124 115.526 107.604C114.662 108.06 113.81 108.288 112.97 108.288H110.738ZM113.222 105.048C114.182 105.048 115.046 104.784 115.814 104.256C116.582 103.704 117.122 102.984 117.434 102.096V101.232C117.026 100.896 116.45 100.632 115.706 100.44C114.962 100.224 114.182 100.116 113.366 100.116H111.098C110.378 100.116 109.79 100.296 109.334 100.656C108.902 101.016 108.686 101.484 108.686 102.06V103.068C108.686 103.668 108.914 104.148 109.37 104.508C109.826 104.868 110.426 105.048 111.17 105.048H113.222ZM145.089 89.748C146.841 89.748 148.233 90.312 149.265 91.44C150.321 92.568 150.849 94.08 150.849 95.976V108H146.709V95.94C146.709 95.148 146.529 94.524 146.169 94.068C145.809 93.588 145.329 93.348 144.729 93.348H143.001C142.209 93.348 141.537 93.636 140.985 94.212C140.433 94.764 140.073 95.52 139.905 96.48V108H135.801V96.048C135.801 95.232 135.621 94.584 135.261 94.104C134.901 93.6 134.421 93.348 133.821 93.348H132.201C131.409 93.348 130.713 93.708 130.113 94.428C129.537 95.124 129.165 96.036 128.997 97.164V108H124.857V90.036H128.709V92.304C129.165 91.512 129.741 90.888 130.437 90.432C131.133 89.976 131.841 89.748 132.561 89.748H134.613C135.525 89.748 136.341 89.988 137.061 90.468C137.781 90.924 138.345 91.572 138.753 92.412C139.281 91.572 139.917 90.924 140.661 90.468C141.405 89.988 142.197 89.748 143.037 89.748H145.089ZM160.812 108.288C159.348 108.288 158.052 108.012 156.924 107.46C155.82 106.908 154.956 106.128 154.332 105.12C153.732 104.112 153.432 102.948 153.432 101.628V96.804C153.432 95.412 153.732 94.188 154.332 93.132C154.956 92.052 155.82 91.224 156.924 90.648C158.052 90.048 159.348 89.748 160.812 89.748H163.692C165.876 89.748 167.628 90.384 168.948 91.656C170.268 92.928 170.928 94.62 170.928 96.732V100.332H157.572V101.628C157.572 102.588 157.86 103.356 158.436 103.932C159.036 104.508 159.828 104.796 160.812 104.796H163.584C164.544 104.796 165.312 104.568 165.888 104.112C166.488 103.632 166.788 103.008 166.788 102.24H170.856C170.856 104.064 170.184 105.528 168.84 106.632C167.496 107.736 165.732 108.288 163.548 108.288H160.812ZM166.86 97.236V96.732C166.86 95.676 166.572 94.824 165.996 94.176C165.42 93.528 164.664 93.204 163.728 93.204H160.812C159.828 93.204 159.024 93.552 158.4 94.248C157.8 94.92 157.5 95.808 157.5 96.912V97.236H166.86ZM173.568 90.036H177.42V92.16C177.924 91.44 178.572 90.864 179.364 90.432C180.18 89.976 180.972 89.748 181.74 89.748H184.116C186.204 89.748 187.884 90.384 189.156 91.656C190.452 92.904 191.1 94.56 191.1 96.624V100.8C191.1 103.056 190.464 104.868 189.192 106.236C187.92 107.604 186.228 108.288 184.116 108.288H181.704C181.008 108.288 180.288 108.12 179.544 107.784C178.8 107.424 178.188 106.956 177.708 106.38V115.2H173.568V90.036ZM183.684 104.724C184.668 104.724 185.46 104.34 186.06 103.572C186.684 102.804 186.996 101.796 186.996 100.548V96.876C186.996 95.82 186.696 94.968 186.096 94.32C185.496 93.648 184.704 93.312 183.72 93.312H181.416C180.6 93.312 179.844 93.636 179.148 94.284C178.476 94.908 177.996 95.724 177.708 96.732V100.908C177.828 102.036 178.224 102.96 178.896 103.68C179.592 104.376 180.42 104.724 181.38 104.724H183.684ZM199.407 108.288C197.583 108.288 196.107 107.832 194.979 106.92C193.875 105.984 193.323 104.748 193.323 103.212V101.916C193.323 100.404 193.899 99.192 195.051 98.28C196.227 97.368 197.763 96.912 199.659 96.912H201.891C202.563 96.912 203.283 97.008 204.051 97.2C204.819 97.392 205.503 97.644 206.103 97.956V95.724C206.103 94.98 205.863 94.38 205.383 93.924C204.903 93.468 204.279 93.24 203.511 93.24H200.487C199.695 93.24 199.059 93.432 198.579 93.816C198.099 94.176 197.859 94.656 197.859 95.256H193.827C193.827 93.6 194.439 92.268 195.663 91.26C196.887 90.252 198.495 89.748 200.487 89.748H203.511C205.527 89.748 207.147 90.3 208.371 91.404C209.595 92.484 210.207 93.924 210.207 95.724V108H206.355V105.732C205.779 106.5 205.059 107.124 204.195 107.604C203.331 108.06 202.479 108.288 201.639 108.288H199.407ZM201.891 105.048C202.851 105.048 203.715 104.784 204.483 104.256C205.251 103.704 205.791 102.984 206.103 102.096V101.232C205.695 100.896 205.119 100.632 204.375 100.44C203.631 100.224 202.851 100.116 202.035 100.116H199.767C199.047 100.116 198.459 100.296 198.003 100.656C197.571 101.016 197.355 101.484 197.355 102.06V103.068C197.355 103.668 197.583 104.148 198.039 104.508C198.495 104.868 199.095 105.048 199.839 105.048H201.891ZM219.646 108.288C217.606 108.288 215.95 107.652 214.678 106.38C213.43 105.084 212.806 103.392 212.806 101.304V97.128C212.806 95.664 213.106 94.38 213.706 93.276C214.306 92.148 215.146 91.284 216.226 90.684C217.33 90.06 218.59 89.748 220.006 89.748H222.202C222.946 89.748 223.678 89.916 224.398 90.252C225.142 90.588 225.754 91.032 226.234 91.584V82.8H230.338V108H226.486V105.516C225.982 106.356 225.31 107.028 224.47 107.532C223.63 108.036 222.778 108.288 221.914 108.288H219.646ZM222.238 104.724C223.27 104.724 224.158 104.316 224.902 103.5C225.67 102.66 226.114 101.628 226.234 100.404V96.804C226.066 95.772 225.658 94.932 225.01 94.284C224.386 93.636 223.63 93.312 222.742 93.312H220.438C219.382 93.312 218.53 93.684 217.882 94.428C217.258 95.172 216.946 96.144 216.946 97.344V101.052C216.946 102.156 217.234 103.044 217.81 103.716C218.41 104.388 219.166 104.724 220.078 104.724H222.238Z" fill="#17F084"/>
<path d="M3.624 12.096C3.008 12.096 2.464 11.964 1.992 11.7C1.52 11.436 1.152 11.064 0.888 10.584C0.632 10.096 0.504 9.536 0.504 8.904V6.696C0.504 6.064 0.632 5.508 0.888 5.028C1.152 4.54 1.52 4.164 1.992 3.9C2.472 3.636 3.024 3.504 3.648 3.504H4.992C5.592 3.504 6.12 3.624 6.576 3.864C7.032 4.104 7.384 4.444 7.632 4.884C7.888 5.324 8.016 5.832 8.016 6.408H6.384C6.384 5.976 6.256 5.628 6 5.364C5.744 5.1 5.408 4.968 4.992 4.968H3.648C3.2 4.968 2.84 5.136 2.568 5.472C2.296 5.8 2.16 6.232 2.16 6.768V8.832C2.16 9.368 2.292 9.804 2.556 10.14C2.828 10.468 3.184 10.632 3.624 10.632H5.04C5.448 10.632 5.784 10.484 6.048 10.188C6.32 9.892 6.456 9.524 6.456 9.084V8.82H4.128V7.38H8.088V9.084C8.088 9.668 7.96 10.188 7.704 10.644C7.448 11.1 7.088 11.456 6.624 11.712C6.16 11.968 5.632 12.096 5.04 12.096H3.624ZM13.8906 10.044H10.7466L10.0026 12H8.27456L11.5626 3.6H12.3066C12.8266 3.6 13.1786 3.84 13.3626 4.32L16.3506 12H14.6226L13.8906 10.044ZM11.1906 8.652H13.4466L12.3306 5.628H12.3186L11.1906 8.652ZM17.1385 3.6H18.6145L21.3625 8.592L24.0505 3.6H25.5265V12H23.9065V6.684L22.1425 9.876C22.0225 10.092 21.8985 10.248 21.7705 10.344C21.6505 10.432 21.5105 10.476 21.3505 10.476H20.8945L18.7585 6.684V12H17.1385V3.6ZM28.1814 12C27.8374 12 27.5574 11.896 27.3414 11.688C27.1254 11.48 27.0174 11.208 27.0174 10.872V3.6H33.4254V5.04H28.6734V6.984H33.0654V8.424H28.6734V10.56H33.4254V12H28.1814ZM34.5526 3.6H38.9806C39.4686 3.6 39.9006 3.696 40.2766 3.888C40.6526 4.072 40.9446 4.34 41.1526 4.692C41.3606 5.036 41.4646 5.432 41.4646 5.88V6.996C41.4646 7.46 41.3566 7.872 41.1406 8.232C40.9246 8.584 40.6206 8.86 40.2286 9.06C39.8446 9.252 39.3966 9.348 38.8846 9.348H36.2086V12H34.5526V3.6ZM38.8606 7.908C39.1406 7.908 39.3686 7.82 39.5446 7.644C39.7206 7.46 39.8086 7.22 39.8086 6.924V5.952C39.8086 5.672 39.7286 5.452 39.5686 5.292C39.4166 5.124 39.2126 5.04 38.9566 5.04H36.2086V7.908H38.8606ZM46.5038 10.044H43.3598L42.6158 12H40.8878L44.1758 3.6H44.9198C45.4398 3.6 45.7918 3.84 45.9758 4.32L48.9638 12H47.2358L46.5038 10.044ZM43.8038 8.652H46.0598L44.9438 5.628H44.9318L43.8038 8.652ZM50.8455 12C50.5015 12 50.2215 11.896 50.0055 11.688C49.7895 11.48 49.6815 11.208 49.6815 10.872V3.6H53.6895C54.3295 3.6 54.8895 3.72 55.3695 3.96C55.8575 4.2 56.2335 4.54 56.4975 4.98C56.7695 5.42 56.9055 5.928 56.9055 6.504V8.856C56.9055 9.888 56.6375 10.672 56.1015 11.208C55.5655 11.736 54.7775 12 53.7375 12H50.8455ZM53.6895 10.536C54.2015 10.536 54.5895 10.388 54.8535 10.092C55.1175 9.796 55.2495 9.36 55.2495 8.784V6.576C55.2495 6.12 55.1015 5.756 54.8055 5.484C54.5095 5.204 54.1215 5.064 53.6415 5.064H51.3375V10.536H53.6895ZM64.4203 12.096C63.8043 12.096 63.2603 11.964 62.7883 11.7C62.3243 11.436 61.9643 11.064 61.7083 10.584C61.4523 10.096 61.3243 9.536 61.3243 8.904V6.696C61.3243 6.064 61.4523 5.508 61.7083 5.028C61.9723 4.54 62.3403 4.164 62.8123 3.9C63.2923 3.636 63.8443 3.504 64.4683 3.504H65.7403C66.3403 3.504 66.8683 3.632 67.3243 3.888C67.7803 4.144 68.1323 4.504 68.3803 4.968C68.6363 5.424 68.7643 5.956 68.7643 6.564H67.1323C67.1323 6.084 67.0043 5.7 66.7483 5.412C66.4923 5.116 66.1563 4.968 65.7403 4.968H64.4683C64.0203 4.968 63.6603 5.136 63.3883 5.472C63.1163 5.8 62.9803 6.232 62.9803 6.768V8.832C62.9803 9.368 63.1123 9.804 63.3763 10.14C63.6403 10.468 63.9883 10.632 64.4203 10.632H65.7163C66.1403 10.632 66.4843 10.468 66.7483 10.14C67.0203 9.812 67.1563 9.38 67.1563 8.844H68.7883C68.7883 9.492 68.6603 10.064 68.4043 10.56C68.1483 11.048 67.7883 11.428 67.3243 11.7C66.8603 11.964 66.3243 12.096 65.7163 12.096H64.4203ZM72.79 12.096C72.158 12.096 71.598 11.964 71.11 11.7C70.63 11.428 70.254 11.052 69.982 10.572C69.718 10.084 69.586 9.52 69.586 8.88V6.72C69.586 6.08 69.718 5.52 69.982 5.04C70.254 4.552 70.63 4.176 71.11 3.912C71.598 3.64 72.158 3.504 72.79 3.504H74.062C74.694 3.504 75.25 3.64 75.73 3.912C76.218 4.176 76.594 4.552 76.858 5.04C77.13 5.52 77.266 6.08 77.266 6.72V8.88C77.266 9.52 77.13 10.084 76.858 10.572C76.594 11.052 76.218 11.428 75.73 11.7C75.25 11.964 74.694 12.096 74.062 12.096H72.79ZM74.062 10.632C74.526 10.632 74.898 10.464 75.178 10.128C75.466 9.792 75.61 9.352 75.61 8.808V6.792C75.61 6.248 75.466 5.808 75.178 5.472C74.898 5.136 74.526 4.968 74.062 4.968H72.79C72.326 4.968 71.95 5.136 71.662 5.472C71.382 5.808 71.242 6.248 71.242 6.792V8.808C71.242 9.352 71.382 9.792 71.662 10.128C71.95 10.464 72.326 10.632 72.79 10.632H74.062ZM78.5096 3.6H79.9856L84.0176 9.312V3.6H85.6376V12H84.1616L80.1296 6.288V12H78.5096V3.6ZM89.6429 12.096C88.7629 12.096 88.0749 11.852 87.5789 11.364C87.0829 10.868 86.8349 10.18 86.8349 9.3H88.4669C88.4669 9.716 88.5709 10.044 88.7789 10.284C88.9949 10.516 89.2909 10.632 89.6669 10.632H90.9989C91.3509 10.632 91.6349 10.56 91.8509 10.416C92.0749 10.264 92.1869 10.064 92.1869 9.816V9.408C92.1869 9.016 91.8989 8.772 91.3229 8.676L89.1149 8.304C88.3949 8.184 87.8469 7.956 87.4709 7.62C87.1029 7.276 86.9189 6.84 86.9189 6.312V5.64C86.9189 5.216 87.0309 4.844 87.2549 4.524C87.4869 4.196 87.8109 3.944 88.2269 3.768C88.6509 3.592 89.1389 3.504 89.6909 3.504H91.0469C91.5669 3.504 92.0269 3.612 92.4269 3.828C92.8269 4.044 93.1349 4.348 93.3509 4.74C93.5749 5.124 93.6869 5.572 93.6869 6.084H92.0549C92.0549 5.748 91.9629 5.48 91.7789 5.28C91.5949 5.072 91.3509 4.968 91.0469 4.968H89.6909C89.3549 4.968 89.0829 5.04 88.8749 5.184C88.6749 5.328 88.5749 5.52 88.5749 5.76V6.084C88.5749 6.484 88.8509 6.732 89.4029 6.828L91.5989 7.212C92.3269 7.34 92.8829 7.568 93.2669 7.896C93.6509 8.216 93.8429 8.632 93.8429 9.144V9.936C93.8429 10.36 93.7229 10.736 93.4829 11.064C93.2509 11.392 92.9229 11.648 92.4989 11.832C92.0749 12.008 91.5829 12.096 91.0229 12.096H89.6429ZM97.9619 12.096C97.3299 12.096 96.7699 11.964 96.2819 11.7C95.8019 11.428 95.4259 11.052 95.1539 10.572C94.8899 10.084 94.7579 9.52 94.7579 8.88V6.72C94.7579 6.08 94.8899 5.52 95.1539 5.04C95.4259 4.552 95.8019 4.176 96.2819 3.912C96.7699 3.64 97.3299 3.504 97.9619 3.504H99.2339C99.8659 3.504 100.422 3.64 100.902 3.912C101.39 4.176 101.766 4.552 102.03 5.04C102.302 5.52 102.438 6.08 102.438 6.72V8.88C102.438 9.52 102.302 10.084 102.03 10.572C101.766 11.052 101.39 11.428 100.902 11.7C100.422 11.964 99.8659 12.096 99.2339 12.096H97.9619ZM99.2339 10.632C99.6979 10.632 100.07 10.464 100.35 10.128C100.638 9.792 100.782 9.352 100.782 8.808V6.792C100.782 6.248 100.638 5.808 100.35 5.472C100.07 5.136 99.6979 4.968 99.2339 4.968H97.9619C97.4979 4.968 97.1219 5.136 96.8339 5.472C96.5539 5.808 96.4139 6.248 96.4139 6.792V8.808C96.4139 9.352 96.5539 9.792 96.8339 10.128C97.1219 10.464 97.4979 10.632 97.9619 10.632H99.2339ZM104.846 12C104.494 12 104.21 11.9 103.994 11.7C103.786 11.492 103.682 11.22 103.682 10.884V3.6H105.338V10.56H109.898V12H104.846ZM111.9 12C111.556 12 111.276 11.896 111.06 11.688C110.844 11.48 110.736 11.208 110.736 10.872V3.6H117.144V5.04H112.392V6.984H116.784V8.424H112.392V10.56H117.144V12H111.9Z" fill="#FDE50B"/>
</svg>
